<?xml version="1.0" encoding="utf-8"?>
<!-- Generator: Adobe Illustrator 15.1.0, SVG Export Plug-In . SVG Version: 6.00 Build 0)  -->
<!DOCTYPE svg PUBLIC "-//W3C//DTD SVG 1.1//EN" "http://www.w3.org/Graphics/SVG/1.1/DTD/svg11.dtd">
<svg version="1.1" id="Layer_1" xmlns="http://www.w3.org/2000/svg" xmlns:xlink="http://www.w3.org/1999/xlink" x="0px" y="0px"
	 width="96px" height="96px" viewBox="0 0 96 96" enable-background="new 0 0 96 96" xml:space="preserve">
<g>
	<g>
		<path fill-rule="evenodd" clip-rule="evenodd" fill="#FFFFFF" d="M28.535,0c-2.482,1.313-4.842,2.329-6.114,4.688
			c-0.493,0.914-0.35,2.22-0.815,3.465c-0.429,1.148-1.377,2.002-1.631,3.057c-0.188,0.785,0.033,1.841-0.204,2.65
			c-0.377,1.288-1.576,2.33-2.038,3.669c-1.039,3.01-1.295,6.323-2.854,8.968c-0.165,1.117,0.681,1.222,0.611,2.242
			c-0.896,1.465-2.287,2.393-3.057,4.28c-0.552,1.354-0.454,3.16-1.223,4.484c-1.352,2.328-4.791,3.789-4.484,7.337
			c0-14.947,0-29.894,0-44.841C13.996,0,21.266,0,28.535,0z"/>
		<path fill-rule="evenodd" clip-rule="evenodd" fill="#FFFFFF" d="M32.408,0c18.956,0,37.911,0,56.866,0
			c0,28.195,0,56.391,0,84.586c-5.204-5.395-11.43-9.768-15.083-16.713c1.103-0.741,2.259,0.84,3.058-0.204
			c-0.539-3.47-2.708-5.31-3.873-8.153c0.96,0.702,3.688,2.615,4.484,0.408c-0.022-1.068,1.36,0.451,1.427-0.611
			c0.289-2.228-1.633-3.777-2.854-5.504c-2.502-3.54-4.637-7.07-7.337-10.191c-1.411-1.63-2.511-3.508-3.873-4.892
			c-0.588-0.597-1.615-0.989-2.242-1.63c-1.102-1.128-1.739-2.575-2.854-3.465c-1.035-0.828-2.285-1.21-3.26-2.038
			c-2.992-2.537-4.712-7.073-9.173-7.949c-1.462-3.597-8.588-5.749-6.93-10.395c2.692-0.148,6.556,0.2,8.561-0.612
			c-0.742-3.742-3.839-5.129-6.93-6.522c-1.283-4.017-5.639-4.959-9.987-5.911C32.408,0.136,32.408,0.068,32.408,0z"/>
		<path fill-rule="evenodd" clip-rule="evenodd" fill="#FFFFFF" d="M6.726,46.063c1.649,7.388,3.845,14.228,6.93,20.179
			c1.498,1.151,2.249,3.051,5.096,2.854c1.127-0.187-0.065-1.185,0.407-1.631c3.674-0.211,5.21,1.867,8.357,2.854
			c2.668,0.837,5.386,0.347,6.93,1.631c-0.155,2.716,1.919,4.723,1.63,7.338c-0.229,2.084-3.179,5.487-5.299,7.337
			c-1.505,1.312-4.499,4.497-6.114,4.892c-2.176,0.531-5.389-1.176-5.503,2.038c1.733-0.391,5.747,2.271,8.153-0.407
			c0.736-0.193,0.284,0.803,0.407,1.223c1.479,0.052,2.609-0.244,3.057-1.223c0.831-0.151,0.702,0.657,1.631,0.407
			c1.032-0.463,0.523-2.466,1.019-3.465c0.031-0.643-0.826-0.396-1.019-0.815c1.371-3.32,4.153-5.328,6.114-7.948
			c1.771-2.366,2.648-5.506,3.058-8.357c5.709,1.018,10.384,3.069,16.305,3.873c2.766,3.71,2.741,11.94,0.204,15.898
			c-2.356-1.435-5.363,0.028-4.891,2.445c0.492,0.392,0.863-0.646,1.019-1.223c0.961,0.366-0.131,1.074,0,1.834
			c0.882-0.648,2.021-0.818,2.65,0.204c-16.714,0-33.428,0-50.141,0C6.726,79.354,6.726,62.709,6.726,46.063z"/>
		<path fill-rule="evenodd" clip-rule="evenodd" fill="#FFFFFF" d="M89.273,85.809c0,3.397,0,6.795,0,10.191
			c-10.259,0-20.518,0-30.777,0c2.126-0.978,4.673-0.779,7.135-0.204c0.779-0.172,0.753-1.148,1.019-1.834
			c0.957-0.073,0.619,1.147,1.631,1.019c0.06-1.485-1.274-1.579-1.834-2.445c-0.799,0.092-1.897,0.947-2.446,0.611
			c-1.634-2.124-2.419-8.19-2.038-11.618c1.664,0.483,1.494,2.607,2.649,4.077c1.45,1.844,3.356,1.659,6.318,1.834
			c1.195,0.07,2.716,0.894,4.28,1.02c5.549,0.446,12.848,0.326,13.86-2.65C89.138,85.809,89.206,85.809,89.273,85.809z"/>
		<path fill-rule="evenodd" clip-rule="evenodd" d="M28.535,0c1.291,0,2.582,0,3.873,0c0,0.068,0,0.136,0,0.204
			c4.348,0.952,8.705,1.895,9.987,5.911c3.091,1.393,6.188,2.78,6.93,6.522c-2.005,0.812-5.869,0.464-8.561,0.612
			c-1.658,4.646,5.468,6.798,6.93,10.395c4.461,0.876,6.181,5.412,9.173,7.949c0.975,0.828,2.225,1.21,3.26,2.038
			c1.114,0.891,1.752,2.337,2.854,3.465c0.627,0.642,1.654,1.033,2.242,1.63c1.362,1.384,2.462,3.262,3.873,4.892
			c2.7,3.121,4.835,6.651,7.337,10.191c1.221,1.727,3.143,3.276,2.854,5.504c-0.066,1.062-1.449-0.457-1.427,0.611
			c-0.796,2.207-3.524,0.294-4.484-0.408c1.165,2.844,3.334,4.684,3.873,8.153c-0.799,1.044-1.955-0.537-3.058,0.204
			c3.653,6.945,9.879,11.318,15.083,16.713c0,0.407,0,0.815,0,1.223c-0.067,0-0.136,0-0.203,0c-1.013,2.977-8.312,3.097-13.86,2.65
			c-1.564-0.126-3.085-0.949-4.28-1.02c-2.962-0.175-4.868,0.01-6.318-1.834c-1.155-1.47-0.985-3.594-2.649-4.077
			c-0.381,3.428,0.404,9.494,2.038,11.618c0.549,0.336,1.647-0.52,2.446-0.611c0.56,0.866,1.894,0.96,1.834,2.445
			c-1.012,0.129-0.674-1.092-1.631-1.019c-0.266,0.686-0.239,1.662-1.019,1.834c-2.462-0.575-5.009-0.773-7.135,0.204
			c-0.543,0-1.086,0-1.629,0c-0.63-1.022-1.769-0.853-2.65-0.204c-0.131-0.76,0.961-1.468,0-1.834
			c-0.155,0.577-0.526,1.614-1.019,1.223c-0.473-2.417,2.534-3.88,4.891-2.445c2.537-3.958,2.562-12.188-0.204-15.898
			c-5.921-0.804-10.596-2.855-16.305-3.873c-0.41,2.852-1.286,5.991-3.058,8.357c-1.961,2.62-4.743,4.628-6.114,7.948
			c0.193,0.419,1.05,0.173,1.019,0.815c-0.496,0.999,0.013,3.002-1.019,3.465c-0.929,0.25-0.8-0.559-1.631-0.407
			c-0.448,0.979-1.579,1.274-3.057,1.223c-0.123-0.42,0.329-1.416-0.407-1.223c-2.406,2.679-6.42,0.017-8.153,0.407
			c0.114-3.214,3.327-1.507,5.503-2.038c1.615-0.395,4.609-3.579,6.114-4.892c2.121-1.85,5.07-5.253,5.299-7.337
			c0.289-2.615-1.785-4.622-1.63-7.338c-1.544-1.284-4.261-0.794-6.93-1.631c-3.146-0.986-4.683-3.064-8.357-2.854
			c-0.473,0.446,0.72,1.444-0.407,1.631c-2.848,0.197-3.598-1.702-5.096-2.854c-3.084-5.951-5.281-12.791-6.93-20.179
			c0-0.407,0-0.815,0-1.223c-0.307-3.548,3.132-5.01,4.484-7.337c0.769-1.324,0.671-3.131,1.223-4.484
			c0.77-1.888,2.162-2.815,3.057-4.28c0.07-1.021-0.776-1.125-0.611-2.242c1.559-2.645,1.814-5.958,2.854-8.968
			c0.462-1.339,1.661-2.381,2.038-3.669c0.237-0.809,0.015-1.865,0.204-2.65c0.254-1.055,1.202-1.909,1.631-3.057
			c0.465-1.245,0.323-2.551,0.815-3.465C23.692,2.329,26.053,1.313,28.535,0z"/>
	</g>
</g>
</svg>
