<?xml version="1.0" encoding="utf-8"?>
<!-- Generator: Adobe Illustrator 15.1.0, SVG Export Plug-In . SVG Version: 6.00 Build 0)  -->
<!DOCTYPE svg PUBLIC "-//W3C//DTD SVG 1.1//EN" "http://www.w3.org/Graphics/SVG/1.1/DTD/svg11.dtd">
<svg version="1.1" id="Layer_1" xmlns="http://www.w3.org/2000/svg" xmlns:xlink="http://www.w3.org/1999/xlink" x="0px" y="0px"
	 width="96px" height="96px" viewBox="0 0 96 96" enable-background="new 0 0 96 96" xml:space="preserve">
<g>
	<g>
		<path fill-rule="evenodd" clip-rule="evenodd" fill="#FFFFFF" d="M25.363,0c-2.887,1.313-5.632,2.329-7.111,4.688
			c-0.573,0.914-0.407,2.22-0.948,3.465c-0.499,1.148-1.602,2.002-1.896,3.057c-0.219,0.785,0.039,1.841-0.237,2.65
			c-0.439,1.288-1.833,2.33-2.371,3.669c-1.208,3.01-1.506,6.323-3.318,8.968c-0.192,1.117,0.792,1.222,0.711,2.242
			c-1.042,1.465-2.66,2.393-3.555,4.28c-0.642,1.354-0.528,3.16-1.422,4.484C3.643,39.831-0.356,41.292,0,44.841
			C0,29.894,0,14.947,0,0C8.454,0,16.909,0,25.363,0z"/>
		<path fill-rule="evenodd" clip-rule="evenodd" fill="#FFFFFF" d="M29.867,0C51.911,0,73.956,0,96,0c0,28.195,0,56.391,0,84.586
			c-6.053-5.395-13.293-9.768-17.541-16.713c1.282-0.741,2.627,0.84,3.556-0.204c-0.627-3.47-3.149-5.31-4.504-8.153
			c1.116,0.702,4.289,2.615,5.215,0.408c-0.026-1.068,1.582,0.451,1.659-0.611c0.336-2.228-1.899-3.777-3.318-5.504
			c-2.91-3.54-5.393-7.07-8.533-10.191c-1.641-1.63-2.92-3.508-4.504-4.892c-0.684-0.597-1.878-0.989-2.607-1.63
			c-1.281-1.128-2.022-2.575-3.318-3.465c-1.204-0.828-2.658-1.21-3.792-2.038c-3.479-2.537-5.479-7.073-10.667-7.949
			c-1.701-3.597-9.988-5.749-8.06-10.395c3.131-0.148,7.624,0.2,9.956-0.612c-0.863-3.742-4.464-5.129-8.06-6.522
			c-1.492-4.017-6.558-4.959-11.615-5.911C29.867,0.136,29.867,0.068,29.867,0z"/>
		<path fill-rule="evenodd" clip-rule="evenodd" fill="#FFFFFF" d="M0,46.063c1.917,7.388,4.472,14.228,8.059,20.179
			c1.742,1.151,2.615,3.051,5.926,2.854c1.312-0.187-0.076-1.185,0.474-1.631c4.272-0.211,6.06,1.867,9.718,2.854
			c3.104,0.837,6.264,0.347,8.059,1.631c-0.18,2.716,2.232,4.723,1.896,7.338c-0.267,2.084-3.697,5.487-6.163,7.337
			c-1.75,1.312-5.232,4.497-7.111,4.892c-2.531,0.531-6.267-1.176-6.4,2.038c2.016-0.391,6.684,2.271,9.481-0.407
			c0.856-0.193,0.331,0.803,0.474,1.223c1.719,0.052,3.034-0.244,3.555-1.223c0.966-0.151,0.816,0.657,1.896,0.407
			c1.2-0.463,0.609-2.466,1.185-3.465c0.036-0.643-0.961-0.396-1.185-0.815c1.595-3.32,4.83-5.328,7.111-7.948
			c2.06-2.366,3.079-5.506,3.556-8.357c6.64,1.018,12.076,3.069,18.963,3.873c3.216,3.71,3.188,11.94,0.237,15.898
			c-2.741-1.435-6.237,0.028-5.688,2.445c0.573,0.392,1.004-0.646,1.185-1.223c1.118,0.366-0.151,1.074,0,1.834
			c1.026-0.648,2.351-0.818,3.082,0.204C38.874,96,19.437,96,0,96C0,79.354,0,62.709,0,46.063z"/>
		<path fill-rule="evenodd" clip-rule="evenodd" fill="#FFFFFF" d="M96,85.809c0,3.397,0,6.795,0,10.191
			c-11.931,0-23.861,0-35.793,0c2.472-0.978,5.434-0.779,8.297-0.204c0.906-0.172,0.876-1.148,1.185-1.834
			c1.113-0.073,0.72,1.147,1.896,1.019c0.069-1.485-1.481-1.579-2.133-2.445c-0.929,0.092-2.206,0.947-2.845,0.611
			c-1.9-2.124-2.813-8.19-2.37-11.618c1.936,0.483,1.737,2.607,3.081,4.077c1.687,1.844,3.903,1.659,7.349,1.834
			c1.39,0.07,3.157,0.894,4.978,1.02c6.452,0.446,14.941,0.326,16.118-2.65C95.842,85.809,95.921,85.809,96,85.809z"/>
		<path fill-rule="evenodd" clip-rule="evenodd" d="M25.363,0c1.501,0,3.002,0,4.504,0c0,0.068,0,0.136,0,0.204
			c5.057,0.952,10.123,1.895,11.615,5.911c3.595,1.393,7.196,2.78,8.06,6.522c-2.332,0.812-6.825,0.464-9.956,0.612
			c-1.928,4.646,6.359,6.798,8.06,10.395c5.188,0.876,7.188,5.412,10.667,7.949c1.134,0.828,2.588,1.21,3.792,2.038
			c1.296,0.891,2.037,2.337,3.318,3.465c0.729,0.642,1.924,1.033,2.607,1.63c1.584,1.384,2.863,3.262,4.504,4.892
			c3.141,3.121,5.623,6.651,8.533,10.191c1.419,1.727,3.654,3.276,3.318,5.504c-0.077,1.062-1.686-0.457-1.659,0.611
			c-0.926,2.207-4.099,0.294-5.215-0.408c1.354,2.844,3.877,4.684,4.504,8.153c-0.929,1.044-2.273-0.537-3.556,0.204
			C82.707,74.818,89.947,79.191,96,84.586c0,0.407,0,0.815,0,1.223c-0.079,0-0.158,0-0.237,0c-1.177,2.977-9.666,3.097-16.118,2.65
			c-1.82-0.126-3.588-0.949-4.978-1.02c-3.445-0.175-5.662,0.01-7.349-1.834c-1.344-1.47-1.146-3.594-3.081-4.077
			c-0.443,3.428,0.47,9.494,2.37,11.618c0.639,0.336,1.916-0.52,2.845-0.611c0.651,0.866,2.202,0.96,2.133,2.445
			c-1.177,0.129-0.783-1.092-1.896-1.019c-0.309,0.686-0.278,1.662-1.185,1.834c-2.863-0.575-5.825-0.773-8.297,0.204
			c-0.632,0-1.264,0-1.896,0c-0.731-1.022-2.056-0.853-3.082-0.204c-0.151-0.76,1.118-1.468,0-1.834
			c-0.181,0.577-0.611,1.614-1.185,1.223c-0.549-2.417,2.947-3.88,5.688-2.445c2.95-3.958,2.979-12.188-0.237-15.898
			c-6.887-0.804-12.323-2.855-18.963-3.873c-0.477,2.852-1.496,5.991-3.556,8.357c-2.281,2.62-5.516,4.628-7.111,7.948
			c0.224,0.419,1.221,0.173,1.185,0.815c-0.576,0.999,0.015,3.002-1.185,3.465c-1.08,0.25-0.93-0.559-1.896-0.407
			c-0.521,0.979-1.836,1.274-3.555,1.223c-0.144-0.42,0.382-1.416-0.474-1.223c-2.798,2.679-7.466,0.017-9.481,0.407
			c0.133-3.214,3.869-1.507,6.4-2.038c1.878-0.395,5.361-3.579,7.111-4.892c2.466-1.85,5.896-5.253,6.163-7.337
			c0.335-2.615-2.076-4.622-1.896-7.338c-1.795-1.284-4.956-0.794-8.059-1.631c-3.659-0.986-5.446-3.064-9.718-2.854
			c-0.55,0.446,0.837,1.444-0.474,1.631c-3.312,0.197-4.184-1.702-5.926-2.854C4.472,60.291,1.917,53.451,0,46.063
			c0-0.407,0-0.815,0-1.223c-0.356-3.548,3.643-5.01,5.215-7.337c0.894-1.324,0.78-3.131,1.422-4.484
			c0.896-1.888,2.514-2.815,3.555-4.28c0.081-1.021-0.903-1.125-0.711-2.242c1.812-2.645,2.11-5.958,3.318-8.968
			c0.538-1.339,1.932-2.381,2.371-3.669c0.275-0.809,0.018-1.865,0.237-2.65c0.295-1.055,1.397-1.909,1.896-3.057
			c0.541-1.245,0.375-2.551,0.948-3.465C19.731,2.329,22.476,1.313,25.363,0z"/>
	</g>
</g>
</svg>
