<?xml version="1.0" encoding="utf-8"?>
<!-- Generator: Adobe Illustrator 15.1.0, SVG Export Plug-In . SVG Version: 6.00 Build 0)  -->
<!DOCTYPE svg PUBLIC "-//W3C//DTD SVG 1.0//EN" "http://www.w3.org/TR/2001/REC-SVG-20010904/DTD/svg10.dtd">
<svg version="1.0" id="Layer_1" xmlns="http://www.w3.org/2000/svg" xmlns:xlink="http://www.w3.org/1999/xlink" x="0px" y="0px"
	 width="512px" height="512px" viewBox="0 0 512 512" enable-background="new 0 0 512 512" xml:space="preserve">
<g>
	<g>
		<path fill-rule="evenodd" clip-rule="evenodd" fill="#FFFFFF" d="M152.187,0c-13.24,7.003-25.828,12.419-32.612,25.002
			c-2.628,4.875-1.868,11.843-4.348,18.48c-2.289,6.125-7.344,10.678-8.696,16.306c-1.006,4.186,0.177,9.817-1.087,14.132
			c-2.013,6.869-8.404,12.424-10.871,19.567c-5.544,16.054-6.907,33.721-15.219,47.83c-0.881,5.954,3.631,6.515,3.261,11.958
			c-4.778,7.813-12.198,12.759-16.306,22.828c-2.945,7.217-2.422,16.853-6.522,23.915c-7.208,12.415-25.549,20.208-23.915,39.134
			c0-79.717,0-159.435,0-239.151C74.644,0,113.416,0,152.187,0z"/>
		<path fill-rule="evenodd" clip-rule="evenodd" fill="#FFFFFF" d="M172.841,0c101.095,0,202.192,0,303.286,0
			c0,150.375,0,300.751,0,451.125c-27.755-28.771-60.961-52.092-80.441-89.138c5.877-3.951,12.046,4.481,16.306-1.087
			c-2.877-18.502-14.442-28.314-20.653-43.482c5.117,3.743,19.666,13.945,23.915,2.175c-0.121-5.695,7.252,2.408,7.609-3.262
			c1.538-11.876-8.711-20.143-15.219-29.351c-13.347-18.882-24.731-37.708-39.134-54.352c-7.523-8.694-13.391-18.708-20.654-26.089
			c-3.135-3.187-8.612-5.274-11.957-8.697c-5.88-6.015-9.277-13.731-15.219-18.479c-5.523-4.415-12.19-6.458-17.393-10.871
			c-15.955-13.53-25.126-37.721-48.917-42.395c-7.8-19.183-45.804-30.659-36.96-55.439c14.356-0.789,34.964,1.066,45.657-3.261
			c-3.957-19.958-20.473-27.358-36.96-34.786C219.265,11.19,196.031,6.16,172.841,1.087C172.841,0.725,172.841,0.362,172.841,0z"/>
		<path fill-rule="evenodd" clip-rule="evenodd" fill="#FFFFFF" d="M35.873,245.673c8.793,39.399,20.507,75.878,36.959,107.618
			c7.99,6.142,11.991,16.273,27.176,15.219c6.016-0.993-0.347-6.317,2.174-8.696c19.593-1.123,27.79,9.959,44.569,15.219
			c14.233,4.461,28.725,1.849,36.96,8.696c-0.825,14.484,10.233,25.189,8.696,39.134c-1.226,11.115-16.953,29.268-28.263,39.134
			c-8.025,7.001-23.996,23.984-32.612,26.089c-11.605,2.835-28.74-6.271-29.35,10.87c9.244-2.083,30.653,12.111,43.482-2.174
			c3.928-1.029,1.516,4.281,2.174,6.522c7.886,0.276,13.913-1.306,16.306-6.522c4.431-0.808,3.743,3.504,8.696,2.174
			c5.502-2.469,2.792-13.15,5.435-18.479c0.166-3.427-4.408-2.114-5.435-4.348c7.313-17.714,22.148-28.42,32.611-42.396
			c9.447-12.618,14.119-29.361,16.306-44.568c30.449,5.423,55.38,16.365,86.964,20.653c14.746,19.789,14.618,63.682,1.087,84.79
			c-12.57-7.648-28.602,0.15-26.089,13.045c2.632,2.088,4.604-3.445,5.436-6.522c5.128,1.956-0.695,5.729,0,9.783
			c4.708-3.457,10.779-4.367,14.132,1.087c-89.139,0-178.277,0-267.415,0C35.873,423.226,35.873,334.447,35.873,245.673z"/>
		<path fill-rule="evenodd" clip-rule="evenodd" fill="#FFFFFF" d="M476.127,457.647c0,18.118,0,36.235,0,54.353
			c-54.714,0-109.43,0-164.144,0c11.334-5.213,24.918-4.153,38.046-1.087c4.156-0.917,4.018-6.129,5.436-9.783
			c5.103-0.392,3.298,6.123,8.696,5.435c0.315-7.924-6.793-8.425-9.783-13.044c-4.258,0.49-10.114,5.055-13.045,3.261
			c-8.714-11.329-12.904-43.681-10.87-61.962c8.88,2.575,7.97,13.904,14.132,21.741c7.731,9.834,17.901,8.851,33.698,9.783
			c6.376,0.377,14.479,4.764,22.828,5.436c29.588,2.381,68.523,1.742,73.919-14.132
			C475.402,457.647,475.765,457.647,476.127,457.647z"/>
		<path fill-rule="evenodd" clip-rule="evenodd" d="M152.187,0c6.884,0,13.769,0,20.654,0c0,0.362,0,0.725,0,1.087
			c23.19,5.073,46.424,10.103,53.265,31.524c16.487,7.428,33.003,14.827,36.96,34.786c-10.693,4.328-31.3,2.473-45.657,3.261
			c-8.844,24.78,29.16,36.257,36.96,55.439c23.792,4.674,32.962,28.865,48.917,42.395c5.202,4.412,11.869,6.456,17.393,10.871
			c5.941,4.749,9.339,12.465,15.219,18.479c3.345,3.422,8.822,5.51,11.957,8.697c7.264,7.381,13.131,17.395,20.654,26.089
			c14.402,16.644,25.787,35.47,39.134,54.352c6.508,9.208,16.757,17.475,15.219,29.351c-0.357,5.67-7.73-2.434-7.609,3.262
			c-4.249,11.771-18.798,1.568-23.915-2.175c6.211,15.168,17.776,24.98,20.653,43.482c-4.26,5.568-10.429-2.864-16.306,1.087
			c19.48,37.046,52.687,60.367,80.441,89.138c0,2.175,0,4.349,0,6.522c-0.362,0-0.725,0-1.087,0
			c-5.396,15.874-44.331,16.513-73.919,14.132c-8.349-0.672-16.452-5.059-22.828-5.436c-15.797-0.933-25.967,0.051-33.698-9.783
			c-6.162-7.837-5.252-19.166-14.132-21.741c-2.034,18.281,2.156,50.633,10.87,61.962c2.931,1.794,8.787-2.771,13.045-3.261
			c2.99,4.619,10.099,5.12,9.783,13.044c-5.398,0.688-3.594-5.826-8.696-5.435c-1.418,3.654-1.279,8.866-5.436,9.783
			c-13.128-3.066-26.712-4.126-38.046,1.087c-2.899,0-5.798,0-8.696,0c-3.353-5.454-9.424-4.544-14.132-1.087
			c-0.695-4.054,5.128-7.827,0-9.783c-0.831,3.077-2.804,8.61-5.436,6.522c-2.513-12.895,13.519-20.693,26.089-13.045
			c13.531-21.108,13.659-65.001-1.087-84.79c-31.584-4.288-56.515-15.23-86.964-20.653c-2.187,15.207-6.858,31.95-16.306,44.568
			c-10.463,13.976-25.298,24.682-32.611,42.396c1.027,2.233,5.601,0.921,5.435,4.348c-2.643,5.329,0.067,16.011-5.435,18.479
			c-4.953,1.33-4.265-2.981-8.696-2.174c-2.393,5.217-8.42,6.799-16.306,6.522c-0.658-2.241,1.754-7.552-2.174-6.522
			c-12.829,14.285-34.238,0.091-43.482,2.174c0.61-17.142,17.745-8.035,29.35-10.87c8.616-2.104,24.586-19.088,32.612-26.089
			c11.31-9.866,27.038-28.019,28.263-39.134c1.537-13.944-9.521-24.649-8.696-39.134c-8.235-6.848-22.727-4.235-36.96-8.696
			c-16.779-5.26-24.976-16.342-44.569-15.219c-2.521,2.379,3.841,7.703-2.174,8.696c-15.186,1.055-19.186-9.077-27.176-15.219
			c-16.452-31.74-28.167-68.219-36.959-107.618c0-2.174,0-4.348,0-6.522c-1.634-18.925,16.708-26.719,23.915-39.134
			c4.1-7.062,3.578-16.698,6.522-23.915c4.108-10.069,11.528-15.015,16.306-22.828c0.37-5.443-4.142-6.004-3.261-11.958
			c8.312-14.109,9.675-31.776,15.219-47.83c2.466-7.143,8.858-12.698,10.871-19.567c1.264-4.315,0.081-9.946,1.087-14.132
			c1.353-5.627,6.407-10.181,8.696-16.306c2.48-6.637,1.72-13.605,4.348-18.48C126.359,12.419,138.947,7.003,152.187,0z"/>
	</g>
</g>
</svg>
